<svg xmlns="http://www.w3.org/2000/svg" version="1.1" xmlns:xlink="http://www.w3.org/1999/xlink" xmlns:svgjs="http://svgjs.dev/svgjs" width="1500" height="606" viewBox="0 0 1500 606"><g transform="matrix(1,0,0,1,-0.9084522071641459,-1.7070942007546819)"><svg viewBox="0 0 396 160" data-background-color="#ffffff" preserveAspectRatio="xMidYMid meet" height="606" width="1500" xmlns="http://www.w3.org/2000/svg" xmlns:xlink="http://www.w3.org/1999/xlink"><g id="tight-bounds" transform="matrix(1,0,0,1,0.24008861730862918,0.45071794079331085)"><svg viewBox="0 0 395.52 159.09856411841338" height="159.09856411841338" width="395.52"><g><svg viewBox="0 0 395.52 159.09856411841338" height="159.09856411841338" width="395.52"><g><svg viewBox="0 0 395.52 159.09856411841338" height="159.09856411841338" width="395.52"><g id="textblocktransform"><svg viewBox="0 0 395.52 159.09856411841338" height="159.09856411841338" width="395.52" id="textblock"><g><svg viewBox="0 0 395.52 124.20987451429778" height="124.20987451429778" width="395.52"><path d="M394.594 26.641C392.735 13.748 387.435 10.163 387.435 10.163 371.165-3.116 350.86-0.254 332.619 1.654 300.414 1.731 268.339 4.568 236.208 6.089 168.767 6.321 100.749 2.505 33.643 11.917 27.339 14.805-6.54 12.484 1.121 28.291 3.129 34.866 10.456 42.164 10.232 48.198 11.236 49.255 12.631 46.831 13.226 48.352 15.309 52.452 18.711 50.518 21.501 52.942 17.614 59.414 20.403 64.804 23.062 70.451 18.377 71.921 12.371 71.224 9.675 76.098 9.396 79.631 7.89 78.96 6.235 78.805 5.026 78.702 2.59 79.089 2.999 80.198 4.394 83.988-1.594 86.18 2.162 89.893-0.422 93.916 3.948 97.397 3.353 101.755 3.278 102.632 3.687 103.379 4.338 103.586 7.22 104.695 3.018 106.861 3.464 109.207 33.029 125.246 65.104 114.158 95.394 121.533 103.259 116.376 97.346 123.363 100.489 122.28 102.943 121.017 104.728 126.252 107.499 123.286 107.927 122.435 107.276 120.424 108.8 120.811 109.6 121.017 110.307 120.965 110.418 119.779 110.586 118 109.117 119.109 108.726 118.181 112.947 113.487 111.906 124.653 115.866 124.189 115.68 122.822 114.528 120.862 116.889 121.12 119.232 119.16 119.306 117.536 121.389 121.945 121.463 122.899 121.835 123.57 122.43 124.034 128.938 119.238 135.409 125.736 142.233 123.57 146.417 121.197 150.433 124.859 154.672 123.957 156.16 123.235 157.666 121.945 159.098 124.111 176.632 124.575 195.319 122.641 211.943 124.189 256.364 121.301 303.836 125.375 350.674 121.558 361.719 120.089 373.192 118 383.958 116.324 383.958 116.324 392.679 111.734 392.679 91.105S394.538 73.055 394.817 56.63C395.096 40.204 396.398 39.534 394.538 26.641Z" opacity="1" fill="#fbb04b" data-fill-palette-color="tertiary"></path><g transform="matrix(1,0,0,1,55.76832,26.068561146666667)"><svg width="283.98335999999995" viewBox="2.45 -43.55 220.83 56.05" height="72.07275222096445" data-palette-color="#ffffff"><path d="M15.1 0Q11.2 0 8.35-1.6 5.5-3.2 3.98-5.95 2.45-8.7 2.45-12.15L2.45-12.15Q2.45-15.75 4.03-18.88 5.6-22 8.53-23.85 11.45-25.7 15.35-25.7L15.35-25.7Q19.55-25.7 22.45-23.68 25.35-21.65 26.5-18.7L26.5-18.7Q26.8-18.1 26.8-17.55L26.8-17.55Q26.8-16.4 25.2-15.95L25.2-15.95Q24.6-15.85 24.45-15.85L24.45-15.85Q23.7-15.85 23.2-16.28 22.7-16.7 22.25-17.55L22.25-17.55Q21.45-19.3 19.75-20.53 18.05-21.75 15.65-21.75L15.65-21.75Q13.2-21.75 11.33-20.45 9.45-19.15 8.43-16.95 7.4-14.75 7.4-12.2L7.4-12.2Q7.4-8.55 9.47-6.25 11.55-3.95 15.4-3.95L15.4-3.95Q17.85-3.95 19.55-4.9 21.25-5.85 22.08-7.3 22.9-8.75 23-10.25L23-10.25Q23-10.9 23.53-11.33 24.05-11.75 25-11.75L25-11.75Q26.2-11.75 26.83-11.28 27.45-10.8 27.45-9.6L27.45-9.6Q27.4-7.3 26.03-5.1 24.65-2.9 21.9-1.45 19.15 0 15.1 0L15.1 0ZM54.85-19Q55.5-16.25 55.77-12.08 56.05-7.9 56.05-1.95L56.05-1.95Q56.05-1.15 55.32-0.6 54.6-0.05 53.55-0.05L53.55-0.05Q52.5-0.05 51.8-0.6 51.1-1.15 51.1-2.2L51.1-2.2Q51.1-14.8 50.1-18.35L50.1-18.35Q49.6-20.15 48.6-20.93 47.6-21.7 46.05-21.7L46.05-21.7Q42.6-21.7 40.77-18.93 38.95-16.15 38.95-12.35L38.95-12.35 38.95-1.9Q38.95-1.1 38.25-0.6 37.55-0.1 36.5-0.1L36.5-0.1Q35.4-0.1 34.7-0.63 34-1.15 34-1.95L34-1.95Q34-12.05 34.25-21.3L34.25-21.3Q34.45-28.45 35.05-37.1L35.05-37.1Q35.2-39.25 37.5-39.25L37.5-39.25Q38.6-39.25 39.22-38.78 39.85-38.3 39.8-37.4L39.8-37.4 39.3-27.8 39-22.3Q40.2-23.85 42.15-24.85 44.1-25.85 46.85-25.85L46.85-25.85Q50.15-25.85 52.05-24.18 53.95-22.5 54.85-19L54.85-19ZM84.8-4Q85.55-3.9 85.97-3.5 86.4-3.1 86.4-2.15L86.4-2.15Q86.4-1.25 85.95-0.65 85.5-0.05 84.7-0.05L84.7-0.05Q82.65-0.05 81.62-0.65 80.59-1.25 79.75-2.9L79.75-2.9Q77.65 0.5 71.95 0.5L71.95 0.5Q66.14 0.5 63.4-3.03 60.65-6.55 60.65-11.8L60.65-11.8Q60.65-15.3 62.05-18.25 63.45-21.2 66.14-22.95 68.84-24.7 72.45-24.7L72.45-24.7Q74.75-24.7 76.52-23.8 78.3-22.9 79.2-21.35L79.2-21.35 79.34-22.6Q79.55-24.4 81.5-24.4L81.5-24.4Q82.8-24.4 83.34-23.83 83.9-23.25 83.8-22.4L83.8-22.4Q83.3-18.65 83.2-16.75L83.2-16.75Q83.05-14.95 83.05-12.05L83.05-12.05 83.05-8.75Q83.05-6.15 83.32-5.15 83.59-4.15 84.8-4L84.8-4ZM78.15-8.75Q78.2-11 78.2-14.9L78.2-14.9Q78.2-16.95 77.32-18.25 76.45-19.55 75.17-20.15 73.9-20.75 72.59-20.75L72.59-20.75Q70.34-20.75 68.77-19.43 67.2-18.1 66.42-16.05 65.64-14 65.64-11.8L65.64-11.8Q65.64-8.45 67.22-5.98 68.8-3.5 72.15-3.5L72.15-3.5Q74.8-3.5 76.45-4.85 78.09-6.2 78.15-8.75L78.15-8.75ZM97.44-27.55Q95.89-27.55 94.89-28.58 93.89-29.6 93.89-31.15L93.89-31.15Q93.89-32.65 94.92-33.65 95.94-34.65 97.54-34.65L97.54-34.65Q99.14-34.65 100.12-33.7 101.09-32.75 101.09-31.2L101.09-31.2Q101.09-29.65 100.07-28.6 99.04-27.55 97.44-27.55L97.44-27.55ZM96.74-0.3Q95.59-0.3 94.89-0.85 94.19-1.4 94.19-2.4L94.19-2.4 94.69-22.7Q94.69-23.7 95.39-24.28 96.09-24.85 97.19-24.85L97.19-24.85Q98.29-24.85 99.02-24.25 99.74-23.65 99.74-22.65L99.74-22.65 99.24-2.35Q99.19-1.35 98.52-0.83 97.84-0.3 96.74-0.3L96.74-0.3ZM138.04-25.45Q141.64-25.45 144.51-23.88 147.39-22.3 149.01-19.38 150.64-16.45 150.64-12.55L150.64-12.55Q150.64-8.4 148.84-5.55 147.04-2.7 144.14-1.3 141.24 0.1 137.89 0.1L137.89 0.1Q135.04 0.1 132.51-1.13 129.99-2.35 129.09-3.7L129.09-3.7Q128.69-2.7 127.86-1.88 127.04-1.05 126.39-0.75L126.39-0.75Q125.89-0.5 125.29-0.5L125.29-0.5Q124.39-0.5 123.74-1.18 123.09-1.85 123.09-2.65L123.09-2.65Q123.09-3.4 123.69-3.95L123.69-3.95Q123.84-4.1 124.31-4.48 124.79-4.85 125.04-5.5L125.04-5.5Q125.34-6.4 125.34-8.45L125.34-8.45 125.24-13.3Q125.24-14.5 125.14-19.1L125.14-19.1Q125.04-25.4 125.04-27.45L125.04-27.45Q124.94-36.65 124.74-41.5L124.74-41.5Q124.69-42.45 125.41-43 126.14-43.55 127.24-43.55L127.24-43.55Q128.24-43.55 128.91-43.05 129.59-42.55 129.64-41.7L129.64-41.7Q129.99-35.1 130.04-27.5L130.04-27.5 130.14-22.45Q131.24-23.75 133.24-24.6 135.24-25.45 138.04-25.45L138.04-25.45ZM137.84-3.85Q139.84-3.85 141.61-4.8 143.39-5.75 144.51-7.73 145.64-9.7 145.64-12.65L145.64-12.65Q145.64-16.85 143.44-19.18 141.24-21.5 137.64-21.5L137.64-21.5Q135.14-21.5 133.16-20.25 131.19-19 130.24-17.5L130.24-17.5 130.24-13.75Q130.24-11.45 130.39-9.2L130.39-9.2Q130.49-7.8 131.56-6.58 132.64-5.35 134.31-4.6 135.99-3.85 137.84-3.85L137.84-3.85ZM159.64-0.45Q158.54-0.45 157.89-1.05 157.24-1.65 157.24-2.6L157.24-2.6 156.94-37.4Q156.94-38.4 157.66-39 158.39-39.6 159.49-39.6L159.49-39.6Q160.59-39.6 161.24-39 161.89-38.4 161.89-37.45L161.89-37.45 162.14-2.65Q162.14-1.65 161.44-1.05 160.74-0.45 159.64-0.45L159.64-0.45ZM181.28 0.1Q175.38 0.1 171.66-3.03 167.93-6.15 167.93-12.4L167.93-12.4Q167.93-16.35 169.51-19.4 171.08-22.45 174.01-24.15 176.93-25.85 180.93-25.85L180.93-25.85Q184.83-25.85 187.91-24.2 190.98-22.55 192.71-19.48 194.43-16.4 194.43-12.3L194.43-12.3Q194.43-6.3 190.83-3.1 187.23 0.1 181.28 0.1L181.28 0.1ZM181.18-3.85Q184.88-3.85 187.18-6.03 189.48-8.2 189.48-12.4L189.48-12.4Q189.48-15.1 188.46-17.28 187.43-19.45 185.51-20.68 183.58-21.9 181.08-21.9L181.08-21.9Q177.38-21.9 175.16-19.33 172.93-16.75 172.93-12.45L172.93-12.45Q172.93-8.05 175.28-5.95 177.63-3.85 181.18-3.85L181.18-3.85ZM222.33-8.55L222.53-7.15Q222.93-4.5 223.11-3 223.28-1.5 223.28-0.1L223.28-0.1Q223.28 3.6 221.76 6.45 220.23 9.3 217.46 10.9 214.68 12.5 211.03 12.5L211.03 12.5Q208.23 12.5 205.88 11.4 203.53 10.3 202.13 8.4 200.73 6.5 200.73 4.3L200.73 4.3Q200.73 2.4 203.08 2.4L203.08 2.4Q204.58 2.4 204.88 3.85L204.88 3.85Q205.38 6.15 206.96 7.28 208.53 8.4 210.93 8.4L210.93 8.4Q214.53 8.4 216.46 6.2 218.38 4 218.38-0.2L218.38-0.2Q218.38-1.55 218.13-3.2L218.13-3.2Q216.98-1.8 215.01-0.93 213.03-0.05 210.48-0.05L210.48-0.05Q206.88-0.05 204.11-1.73 201.33-3.4 199.83-6.25 198.33-9.1 198.33-12.45L198.33-12.45Q198.33-15.9 199.81-18.85 201.28-21.8 204.01-23.53 206.73-25.25 210.23-25.25L210.23-25.25Q214.13-25.25 216.38-23.3L216.38-23.3Q216.58-23.9 217.28-25.5L217.28-25.5Q217.78-26.5 218.93-26.5L218.93-26.5Q219.88-26.5 220.76-25.98 221.63-25.45 221.68-24.65L221.68-24.65Q221.68-24.3 221.63-24.15L221.63-24.15Q220.78-21.45 220.63-20.75L220.63-20.75 222.33-8.55ZM210.73-4.25Q212.93-4.25 215.01-5.45 217.08-6.65 217.48-8.05L217.48-8.05Q217.18-10.9 216.33-15.9L216.33-15.9Q216.28-16.4 215.93-18.45L215.93-18.45Q215.48-19.4 213.96-20.25 212.43-21.1 210.53-21.1L210.53-21.1Q208.43-21.1 206.78-19.98 205.13-18.85 204.21-16.88 203.28-14.9 203.28-12.5L203.28-12.5Q203.28-9.05 205.21-6.65 207.13-4.25 210.73-4.25L210.73-4.25Z" opacity="1" transform="matrix(1,0,0,1,0,0)" fill="#ffffff" class="wordmark-text-0" data-fill-palette-color="quaternary" id="text-0"></path></svg></g></svg></g><g transform="matrix(1,0,0,1,168.5421344045847,141.22452156761418)"><svg viewBox="0 0 58.43573119083059 17.874042550799185" height="17.874042550799185" width="58.43573119083059"><g transform="matrix(1,0,0,1,0,0)"><svg width="58.43573119083059" viewBox="1.7 -39.65 165.08 50.5" height="17.874042550799185" data-palette-color="#fbb04b"><path d="M12.35-27.15Q14.5-27.15 16.25-26.43 18-25.7 19.6-24.15L19.6-24.15 16.95-20.65Q15.85-21.55 14.88-21.98 13.9-22.4 12.75-22.4L12.75-22.4Q10.5-22.4 9.35-20.28 8.2-18.15 8.2-13.1L8.2-13.1Q8.2-8.2 9.38-6.2 10.55-4.2 12.75-4.2L12.75-4.2Q13.85-4.2 14.75-4.6 15.65-5 16.85-5.85L16.85-5.85 19.6-2.3Q16.4 0.75 12.45 0.75L12.45 0.75Q7.35 0.75 4.53-2.73 1.7-6.2 1.7-13L1.7-13Q1.7-17.4 3-20.6 4.3-23.8 6.73-25.48 9.15-27.15 12.35-27.15L12.35-27.15ZM35-27.15Q37.85-27.15 39.5-25.1 41.15-23.05 41.15-19.6L41.15-19.6 41.15 0 35 0 35-18.9Q35-20.8 34.47-21.63 33.95-22.45 32.95-22.45L32.95-22.45Q30.85-22.45 28.8-18.5L28.8-18.5 28.8 0 22.65 0 22.65-37 28.8-37.65 28.8-23.3Q30.05-25.25 31.52-26.2 33-27.15 35-27.15L35-27.15ZM63.59-6.4Q63.59-5.1 63.95-4.48 64.3-3.85 65.09-3.45L65.09-3.45 63.84 0.65Q61.8 0.4 60.57-0.45 59.34-1.3 58.74-3.05L58.74-3.05Q56.45 0.75 52.3 0.75L52.3 0.75Q48.99 0.75 47.05-1.48 45.09-3.7 45.09-7.4L45.09-7.4Q45.09-11.7 47.77-13.95 50.45-16.2 55.55-16.2L55.55-16.2 57.59-16.2 57.59-18.05Q57.59-20.55 56.72-21.58 55.84-22.6 53.89-22.6L53.89-22.6Q51.55-22.6 48.05-21.3L48.05-21.3 46.64-25.3Q48.64-26.2 50.8-26.68 52.95-27.15 54.89-27.15L54.89-27.15Q63.59-27.15 63.59-18.35L63.59-18.35 63.59-6.4ZM53.95-3.7Q56.34-3.7 57.59-7L57.59-7 57.59-12.55 56.14-12.55Q53.59-12.55 52.42-11.4 51.24-10.25 51.24-7.85L51.24-7.85Q51.24-5.8 51.95-4.75 52.64-3.7 53.95-3.7L53.95-3.7ZM69.39-26.45L75.54-26.45 75.54 0 69.39 0 69.39-26.45ZM72.44-39.65Q74.09-39.65 75.12-38.6 76.14-37.55 76.14-35.9L76.14-35.9Q76.14-34.3 75.12-33.25 74.09-32.2 72.44-32.2L72.44-32.2Q70.79-32.2 69.77-33.25 68.74-34.3 68.74-35.9L68.74-35.9Q68.74-37.55 69.77-38.6 70.79-39.65 72.44-39.65L72.44-39.65ZM109.04-29.85L110.59-25.1Q109.54-24.6 108.06-24.4 106.59-24.2 104.39-24.2L104.39-24.2Q106.49-23.2 107.51-21.53 108.54-19.85 108.54-17.4L108.54-17.4Q108.54-13.4 106.09-10.95 103.64-8.5 99.44-8.5L99.44-8.5Q98.19-8.5 96.89-8.9L96.89-8.9Q95.99-8.15 95.99-6.85L95.99-6.85Q95.99-5.85 96.54-5.35 97.09-4.85 98.59-4.85L98.59-4.85 101.39-4.85Q105.39-4.85 107.74-2.78 110.09-0.7 110.09 2.5L110.09 2.5Q110.09 6.3 107.16 8.58 104.24 10.85 98.84 10.85L98.84 10.85Q93.14 10.85 90.86 8.75 88.59 6.65 88.59 2.6L88.59 2.6 94.04 2.6Q94.04 4.75 95.04 5.65 96.04 6.55 98.89 6.55L98.89 6.55Q101.64 6.55 102.79 5.6 103.94 4.65 103.94 2.9L103.94 2.9Q103.94 1.2 102.99 0.4 102.04-0.4 100.04-0.4L100.04-0.4 98.14-0.4Q94.34-0.4 92.59-1.75 90.84-3.1 90.84-5.45L90.84-5.45Q90.84-6.8 91.56-8.03 92.29-9.25 93.54-10.2L93.54-10.2Q91.49-11.5 90.54-13.3 89.59-15.1 89.59-17.7L89.59-17.7Q89.59-22.05 92.19-24.58 94.79-27.1 99.19-27.1L99.19-27.1Q102.44-27.1 104.56-27.8 106.69-28.5 109.04-29.85L109.04-29.85ZM99.19-23Q97.44-23 96.54-21.75 95.64-20.5 95.64-17.8L95.64-17.8Q95.64-15.25 96.54-13.88 97.44-12.5 99.14-12.5L99.14-12.5Q100.89-12.5 101.74-13.73 102.59-14.95 102.59-17.85L102.59-17.85Q102.59-20.55 101.76-21.78 100.94-23 99.19-23L99.19-23ZM131.49-26.45L131.49 0 126.14 0 125.84-3.35Q124.59-1.3 123.04-0.28 121.49 0.75 119.44 0.75L119.44 0.75Q116.54 0.75 114.86-1.3 113.19-3.35 113.19-6.65L113.19-6.65 113.19-26.45 119.34-26.45 119.34-7Q119.34-3.9 121.44-3.9L121.44-3.9Q122.64-3.9 123.59-4.83 124.54-5.75 125.34-7.45L125.34-7.45 125.34-26.45 131.49-26.45ZM146.88-33.05Q145.48-33.05 144.81-32.3 144.13-31.55 144.13-30L144.13-30 144.13-26.45 149.18-26.45 148.48-22 144.13-22 144.13 0 137.98 0 137.98-22 134.68-22 134.68-26.45 137.98-26.45 137.98-29.8Q137.98-33.4 140.08-35.55 142.18-37.7 146.08-37.7L146.08-37.7Q149.13-37.7 151.98-36.2L151.98-36.2 150.28-32.2Q148.53-33.05 146.88-33.05L146.88-33.05ZM161.68-33.05Q160.28-33.05 159.61-32.3 158.93-31.55 158.93-30L158.93-30 158.93-26.45 163.98-26.45 163.28-22 158.93-22 158.93 0 152.78 0 152.78-22 149.48-22 149.48-26.45 152.78-26.45 152.78-29.8Q152.78-33.4 154.88-35.55 156.98-37.7 160.88-37.7L160.88-37.7Q163.93-37.7 166.78-36.2L166.78-36.2 165.08-32.2Q163.33-33.05 161.68-33.05L161.68-33.05Z" opacity="1" transform="matrix(1,0,0,1,0,0)" fill="#fbb04b" class="slogan-text-1" data-fill-palette-color="secondary" id="text-1"></path></svg></g></svg></g></svg></g></svg></g><g></g></svg></g><defs></defs></svg><rect width="395.52" height="159.09856411841338" fill="none" stroke="none" visibility="hidden"></rect></g></svg></g></svg>